<svg xmlns="http://www.w3.org/2000/svg" viewBox="0 0 943.52 415.25"><defs><style>.cls-1{fill:#95c11f;}.cls-2{fill:#fff;}.cls-3{fill:#706f6f;}</style></defs><g id="Layer_2" data-name="Layer 2"><g id="Layer_1-2" data-name="Layer 1"><path d="M15.49,136.08v90.48H3.75V136.08Z"/><path d="M84.35,141q7.94,6.56,7.94,18.72V163q0,13-7.74,20t-23.35,7A86.65,86.65,0,0,1,47.94,189v37.57H36.2V135.11q11.74-.69,23.9-.69Q76.42,134.42,84.35,141ZM48,144.64V178.9A103.39,103.39,0,0,0,60.66,180q19.89,0,19.89-17.54v-2.35q0-7.87-5-11.81t-15.75-3.94Q53.76,144.37,48,144.64Z"/><path d="M154.87,140.77q7.74,6.36,7.74,17.82V162a23.62,23.62,0,0,1-4.42,14.16,23.25,23.25,0,0,1-12.71,8.63L169,226.55H155.84l-22-39.23c-.74.09-2.21.14-4.42.14q-5.52,0-10.91-.41v39.51H106.81V135q15.47-.56,24-.55Q147.13,134.42,154.87,140.77Zm-36.33,3.87v32.6q7.45.69,12.43.69,19.89,0,19.89-16.16V159q0-7.45-4.84-11t-15.47-3.59Q126,144.37,118.54,144.64Z"/><path d="M220.9,135.32q6.63.9,12.16,2l-.28,10.36q-15.61-3-23.62-3-9.53,0-13.61,3.8t-4.07,12.64v40.06q0,8.84,4.07,12.78t13.61,3.94a88.46,88.46,0,0,0,16.16-1.93V185.4H208.05V174.35h29v48.76q-16.58,5.12-27.9,5.11-15.89,0-22.66-6.77t-6.77-21.14v-38q0-14.64,6.91-21.27t22.52-6.63A88.39,88.39,0,0,1,220.9,135.32Z"/><polygon class="cls-1" points="737.94 287.03 792.65 298.15 829.63 256.33 811.91 203.39 757.19 192.27 720.21 234.09 737.94 287.03"/><path class="cls-2" d="M793.57,300.89,736,289.2l-18.64-55.68,38.9-44,57.54,11.69,18.65,55.68Zm-53.72-16,51.88,10.54,35.07-39.66L810,205.55,758.11,195,723,234.67Z"/><polygon class="cls-1" points="776.45 97.5 831.16 108.62 868.15 66.8 850.42 13.85 795.71 2.74 758.72 44.56 776.45 97.5"/><path class="cls-2" d="M832.08,111.36,774.54,99.67,755.89,44l38.9-44,57.54,11.69L871,67.37Zm-53.72-16,51.88,10.54,35.07-39.66L848.5,16,796.62,5.47,761.55,45.13Z"/><polygon class="cls-3" points="646.27 317.75 700.98 328.86 737.97 287.04 720.24 234.1 665.53 222.98 628.54 264.8 646.27 317.75"/><path class="cls-2" d="M701.9,331.6l-57.54-11.69-18.64-55.68,38.9-44,57.54,11.69,18.65,55.68Zm-53.72-16,51.88,10.54,35.07-39.66-16.81-50.2-51.88-10.54-35.07,39.66Z"/><polygon class="cls-1" points="665.53 222.98 720.24 234.1 757.23 192.27 739.5 139.33 684.79 128.21 647.8 170.04 665.53 222.98"/><path class="cls-2" d="M721.16,236.84l-57.54-11.7L645,169.46l38.9-44,57.54,11.69,18.64,55.68Zm-53.72-16,51.88,10.54,35.07-39.66-16.81-50.2L685.7,131l-35.07,39.66Z"/><polygon class="cls-1" points="684.79 128.21 739.5 139.33 776.48 97.51 758.76 44.57 704.04 33.45 667.06 75.27 684.79 128.21"/><path class="cls-2" d="M740.42,142.07l-57.54-11.69L664.23,74.7l38.9-44L760.67,42.4l18.64,55.68Zm-53.72-16,51.88,10.54,35.07-39.66-16.81-50.2L705,36.19,669.89,75.85Z"/><path d="M0,301.83l4.21-34.5H8.7l-4.21,34.5Z"/><path d="M31.56,277c.91,1,1.37,2.63,1.37,4.85a20.88,20.88,0,0,1-.26,3.32l-2.53,16.65H25.66l2.63-16.75a14.76,14.76,0,0,0,.21-2.42,3.75,3.75,0,0,0-.55-2.32,1.93,1.93,0,0,0-1.61-.68q-1.85,0-3.79,2.5A24.66,24.66,0,0,0,19,289.33a58.58,58.58,0,0,0-2.42,10.93l-.21,1.58H11.91l3.58-25.71H19.7l-.58,4.16-2.37,8.9.16.11.16-.11A29.37,29.37,0,0,1,21.65,279c1.83-2.33,3.79-3.5,5.9-3.5A5.07,5.07,0,0,1,31.56,277Z"/><path d="M46.31,276.12h6.85l-.53,3.69H45.78l-2.11,15.06a7.31,7.31,0,0,0-.05,1.05,2.73,2.73,0,0,0,.66,2.05,2.77,2.77,0,0,0,2,.63,9.7,9.7,0,0,0,2.42-.37,14.07,14.07,0,0,0,2.32-.79l-.53,3.85a10,10,0,0,1-2.34.82,11,11,0,0,1-2.5.34,7.4,7.4,0,0,1-4.93-1.4,5.6,5.6,0,0,1-1.61-4.45,14.31,14.31,0,0,1,.16-2.11l2.11-14.7H37.62l.37-2.63,4.21-.79,2.42-7.11h2.63Z"/><path d="M73.17,277.26a6.06,6.06,0,0,1,2,4.77,8.9,8.9,0,0,1-3.58,7.14Q68,292.1,60.53,292.73l-.05.58a8.22,8.22,0,0,0-.16,1.58q0,3.74,3.95,3.74a13.63,13.63,0,0,0,3.63-.55,20.13,20.13,0,0,0,3.84-1.5L71,300.64A20.28,20.28,0,0,1,67.13,302a15.4,15.4,0,0,1-3.61.5q-7.59,0-7.58-7.64a23,23,0,0,1,.26-3l.63-4.11q.9-6,3.77-9.11a9.27,9.27,0,0,1,7.08-3.11A7.89,7.89,0,0,1,73.17,277.26Zm-9.48,4.1a12.45,12.45,0,0,0-2.32,6.14L61,289.87a30.89,30.89,0,0,0,5.69-1.42,12.09,12.09,0,0,0,3.08-2.9,5.31,5.31,0,0,0,1-3.06,3.24,3.24,0,0,0-.87-2.4,3.16,3.16,0,0,0-2.34-.87A5,5,0,0,0,63.69,281.36Z"/><path d="M94.4,275.6l-.84,5.64a5.42,5.42,0,0,0-1.37-.16c-2.07,0-3.92,1.72-5.53,5.16a45,45,0,0,0-3.48,13.22l-.32,2.37H78.38L82,276.12h4.21l-.58,4.16-2.37,8.9.16.11.16-.11A31,31,0,0,1,88,279q2.61-3.5,5.56-3.5Z"/><path d="M115.15,277c.91,1,1.37,2.63,1.37,4.85a20.88,20.88,0,0,1-.26,3.32l-2.53,16.65h-4.48l2.63-16.75a14.76,14.76,0,0,0,.21-2.42,3.75,3.75,0,0,0-.55-2.32,1.93,1.93,0,0,0-1.61-.68q-1.84,0-3.79,2.5a24.66,24.66,0,0,0-3.53,7.16,58.58,58.58,0,0,0-2.42,10.93l-.21,1.58H95.5l3.58-25.71h4.21l-.58,4.16-2.37,8.9.16.11.16-.11A29.37,29.37,0,0,1,105.24,279c1.83-2.33,3.79-3.5,5.9-3.5A5.06,5.06,0,0,1,115.15,277Z"/><path d="M134.85,276.36a10.26,10.26,0,0,1,3,2.4l.32-2.63h4.21l-3.58,25.71h-4.27l.47-3.42,2.16-6.58-.1-.1-.16.05q-3.58,10.69-9.69,10.69a5.43,5.43,0,0,1-4.24-1.79,7.32,7.32,0,0,1-1.61-5.06,12.91,12.91,0,0,1,.21-2.42l1.37-8.59a12.19,12.19,0,0,1,3-6.79,7.48,7.48,0,0,1,5.5-2.32A7,7,0,0,1,134.85,276.36Zm-7.48,8.51-1.26,7.74a17.22,17.22,0,0,0-.26,2.53,3.88,3.88,0,0,0,.66,2.55,2.39,2.39,0,0,0,1.92.76q2.85,0,4.95-3.5a24.91,24.91,0,0,0,3-7.88l.68-4.9a8.26,8.26,0,0,0-2.4-2.08,5.34,5.34,0,0,0-2.66-.76C129.51,279.34,128,281.18,127.37,284.87Z"/><path d="M155,276.12h6.85l-.53,3.69h-6.85l-2.11,15.06a7.31,7.31,0,0,0-.05,1.05,2.73,2.73,0,0,0,.66,2.05,2.77,2.77,0,0,0,2,.63,9.7,9.7,0,0,0,2.42-.37,14.07,14.07,0,0,0,2.32-.79l-.53,3.85a10,10,0,0,1-2.34.82,11,11,0,0,1-2.5.34,7.4,7.4,0,0,1-4.93-1.4,5.6,5.6,0,0,1-1.61-4.45,14.31,14.31,0,0,1,.16-2.11l2.11-14.7h-3.74l.37-2.63,4.21-.79,2.42-7.11h2.63Z"/><path d="M164.08,301.83l3.58-25.71h4.48l-3.58,25.71ZM172.77,271a3.7,3.7,0,0,1-2.16.53,3.16,3.16,0,0,1-2.19-.69,2,2,0,0,1-.61-1.84l.21-1.53a2.4,2.4,0,0,1,.9-1.71,3.55,3.55,0,0,1,2.16-.55,3.12,3.12,0,0,1,2.19.71,2,2,0,0,1,.61,1.87l-.21,1.53A2.32,2.32,0,0,1,172.77,271Z"/><path d="M192.05,299.91a9.39,9.39,0,0,1-6.9,2.56c-2.81,0-5-.69-6.45-2.05a7.41,7.41,0,0,1-2.24-5.74,11.69,11.69,0,0,1,.16-1.9l1-7.58a11.71,11.71,0,0,1,3.27-7.19,9.61,9.61,0,0,1,6.9-2.5c2.77,0,4.9.69,6.37,2.08a7.48,7.48,0,0,1,2.21,5.71,12.57,12.57,0,0,1-.16,1.95l-1,7.32A12.28,12.28,0,0,1,192.05,299.91Zm-.1-16.25a4.46,4.46,0,0,0-1.16-3.27,4.28,4.28,0,0,0-3.16-1.16q-4.63,0-5.37,5.37l-1.21,8.53c-.07.56-.11.95-.11,1.16a4.38,4.38,0,0,0,1.19,3.24,4.31,4.31,0,0,0,3.19,1.19q4.63,0,5.32-5.37l1.21-8.48C191.91,284.31,192,283.9,192,283.66Z"/><path d="M220.44,277c.91,1,1.37,2.63,1.37,4.85a20.88,20.88,0,0,1-.26,3.32L219,301.84h-4.48l2.63-16.75a14.76,14.76,0,0,0,.21-2.42,3.75,3.75,0,0,0-.55-2.32,1.93,1.93,0,0,0-1.61-.68q-1.84,0-3.79,2.5a24.66,24.66,0,0,0-3.53,7.16,58.58,58.58,0,0,0-2.42,10.93l-.21,1.58h-4.48l3.58-25.71h4.21l-.58,4.16-2.37,8.9.16.11.16-.11A29.37,29.37,0,0,1,210.53,279c1.83-2.33,3.79-3.5,5.9-3.5A5,5,0,0,1,220.44,277Z"/><path d="M240.14,276.36a10.26,10.26,0,0,1,3,2.4l.32-2.63h4.21L244,301.84h-4.27l.47-3.42,2.16-6.58-.1-.1-.16.05q-3.58,10.69-9.69,10.69a5.43,5.43,0,0,1-4.24-1.79,7.32,7.32,0,0,1-1.61-5.06,12.91,12.91,0,0,1,.21-2.42l1.37-8.59a12.19,12.19,0,0,1,3-6.79,7.48,7.48,0,0,1,5.5-2.32A7,7,0,0,1,240.14,276.36Zm-7.48,8.51-1.26,7.74a17.22,17.22,0,0,0-.26,2.53,3.88,3.88,0,0,0,.66,2.55,2.39,2.39,0,0,0,1.92.76q2.85,0,4.95-3.5a24.91,24.91,0,0,0,3-7.88l.68-4.9a8.26,8.26,0,0,0-2.4-2.08,5.34,5.34,0,0,0-2.66-.76C234.8,279.34,233.26,281.18,232.66,284.87Z"/><path d="M259.32,277.39l-3.42,24.44h-4.48l3.37-24.12a107.14,107.14,0,0,0,1.05-11.85h4.48A100.92,100.92,0,0,1,259.32,277.39Z"/><path d="M294.58,269a7.76,7.76,0,0,1,3,6.51,10.43,10.43,0,0,1-.16,1.79l-.11.74a10.7,10.7,0,0,1-3.87,7.19q-3.18,2.5-8.67,2.5a31.19,31.19,0,0,1-5.37-.69l-1.74,14.75h-4.48L277.48,267c3.09-.18,5.93-.26,8.53-.26C289.71,266.69,292.56,267.48,294.58,269Zm-13.09,1.5-1.63,13a27.46,27.46,0,0,0,4.85.53,9,9,0,0,0,5.61-1.53,7.33,7.33,0,0,0,2.55-4.74l.11-.58a7.2,7.2,0,0,0,.1-1.42,4.7,4.7,0,0,0-1.84-3.95,8.66,8.66,0,0,0-5.37-1.42C284.42,270.43,283,270.47,281.49,270.54Z"/><path d="M315.62,275.6l-.84,5.64a5.42,5.42,0,0,0-1.37-.16c-2.07,0-3.92,1.72-5.53,5.16a45,45,0,0,0-3.48,13.22l-.32,2.37H299.6l3.58-25.71h4.21l-.58,4.16-2.37,8.9.16.11.16-.11A31,31,0,0,1,309.21,279q2.61-3.5,5.56-3.5Z"/><path d="M332.85,299.91a9.39,9.39,0,0,1-6.9,2.56c-2.81,0-5-.69-6.45-2.05a7.41,7.41,0,0,1-2.24-5.74,11.69,11.69,0,0,1,.16-1.9l1.05-7.58a11.71,11.71,0,0,1,3.27-7.19,9.61,9.61,0,0,1,6.9-2.5c2.77,0,4.9.69,6.37,2.08a7.48,7.48,0,0,1,2.21,5.71,12.57,12.57,0,0,1-.16,1.95l-1,7.32A12.28,12.28,0,0,1,332.85,299.91Zm-.11-16.25a4.46,4.46,0,0,0-1.16-3.27,4.28,4.28,0,0,0-3.16-1.16q-4.64,0-5.37,5.37l-1.21,8.53c-.07.56-.11.95-.11,1.16a4.38,4.38,0,0,0,1.19,3.24,4.31,4.31,0,0,0,3.19,1.19q4.63,0,5.32-5.37l1.21-8.48A10.87,10.87,0,0,0,332.74,283.66Z"/><path d="M361,277.33a8,8,0,0,1,1.61,5.37,22.14,22.14,0,0,1-.37,3.48L360.77,294q-1.57,8.43-8.27,8.43a8.51,8.51,0,0,1-3.27-.71,9.4,9.4,0,0,1-3-1.92,119.39,119.39,0,0,1-2.48,11.75h-4.42a141.54,141.54,0,0,0,2.84-14.85l2.95-20.6h4.21l-.42,3.06-2.42,9.27.11.11.16-.11a31.49,31.49,0,0,1,4.29-9.72q2.4-3.24,5.56-3.24A5.45,5.45,0,0,1,361,277.33Zm-8.93,4.35a20.94,20.94,0,0,0-3.16,5.72,32.58,32.58,0,0,0-1.9,7.37l-.26,1.84A8.6,8.6,0,0,0,349,298a6.3,6.3,0,0,0,2.34.53,4.44,4.44,0,0,0,3.24-1.21,7.39,7.39,0,0,0,1.76-3.9l1.37-6.95a17.26,17.26,0,0,0,.32-3,5.29,5.29,0,0,0-.68-3,2.09,2.09,0,0,0-1.79-1C354.44,279.49,353.27,280.22,352.07,281.68Z"/><path d="M382.83,299.91a9.39,9.39,0,0,1-6.9,2.56c-2.81,0-5-.69-6.45-2.05a7.41,7.41,0,0,1-2.24-5.74,11.69,11.69,0,0,1,.16-1.9l1.05-7.58a11.71,11.71,0,0,1,3.27-7.19,9.61,9.61,0,0,1,6.9-2.5c2.77,0,4.9.69,6.37,2.08a7.48,7.48,0,0,1,2.21,5.71,12.57,12.57,0,0,1-.16,1.95l-1,7.32A12.23,12.23,0,0,1,382.83,299.91Zm-.1-16.25a4.46,4.46,0,0,0-1.16-3.27,4.28,4.28,0,0,0-3.16-1.16q-4.64,0-5.37,5.37l-1.21,8.53c-.07.56-.11.95-.11,1.16a4.38,4.38,0,0,0,1.19,3.24,4.31,4.31,0,0,0,3.19,1.19q4.63,0,5.32-5.37l1.21-8.48C382.69,284.31,382.73,283.9,382.73,283.66Z"/><path d="M399.48,277.39l-3.42,24.44h-4.48L395,277.71A107.14,107.14,0,0,0,396,265.86h4.48A98.69,98.69,0,0,1,399.48,277.39Z"/><path d="M403.43,301.83,407,276.12h4.48l-3.58,25.71ZM412.12,271a3.7,3.7,0,0,1-2.16.53,3.16,3.16,0,0,1-2.19-.69,2,2,0,0,1-.61-1.84l.21-1.53a2.4,2.4,0,0,1,.9-1.71,3.55,3.55,0,0,1,2.16-.55,3.12,3.12,0,0,1,2.19.71,2,2,0,0,1,.61,1.87l-.21,1.53A2.36,2.36,0,0,1,412.12,271Z"/><path d="M428.08,275.78a32.54,32.54,0,0,1,3.42.76l-.63,4.06a32.53,32.53,0,0,0-4.27-1.37l-1.9-.11q-3.52,0-3.95,2.69l-.05.32a2.26,2.26,0,0,0-.05.58,3,3,0,0,0,.55,1.79,3.7,3.7,0,0,0,1.61,1.26l4.32,2a7.05,7.05,0,0,1,3.08,2.53,6.55,6.55,0,0,1,1.08,3.69,6.64,6.64,0,0,1-.05.9l-.11.84a7.34,7.34,0,0,1-2.55,4.9,8.9,8.9,0,0,1-5.93,1.84,16.46,16.46,0,0,1-4-.55,17,17,0,0,1-3.87-1.45l.68-4.06a27.17,27.17,0,0,0,2.5,1.19,25,25,0,0,0,2.55.92,18.59,18.59,0,0,0,2,.16c2.49,0,3.92-1.12,4.27-3.37l.05-.32a2.82,2.82,0,0,0,0-.58,3.05,3.05,0,0,0-.55-1.76,3.94,3.94,0,0,0-1.5-1.29l-4.21-2a7.78,7.78,0,0,1-3.24-2.58,6.2,6.2,0,0,1-1.08-3.58,6,6,0,0,1,.11-1.37l.16-.84q1-5.53,8.48-5.53A17.79,17.79,0,0,1,428.08,275.78Z"/><path d="M21.39,332.27a7.52,7.52,0,0,1,2.95,6.16c0,.35,0,.84-.11,1.48l-.16,1a9.68,9.68,0,0,1-2.45,5.21,11.44,11.44,0,0,1-5.14,3.27L23.7,365H18.59q-2.47-6.11-3.82-9.17c-.9-2-1.85-4-2.87-5.85a38.88,38.88,0,0,1-5.58-.42L4.48,365H0l4.27-34.87c3.27-.18,6.23-.26,8.9-.26C16.69,329.9,19.42,330.69,21.39,332.27ZM8.28,333.75,6.75,346.18a43,43,0,0,0,4.63.32q7.28,0,8.27-5.95l.05-.32c.07-.63.11-1.09.11-1.37A4.57,4.57,0,0,0,18.05,335a8.54,8.54,0,0,0-5.24-1.34Z"/><path d="M45.2,340.46a6.06,6.06,0,0,1,2,4.77,8.9,8.9,0,0,1-3.58,7.14q-3.59,2.92-11.06,3.56l-.05.58a8.22,8.22,0,0,0-.16,1.58q0,3.74,3.95,3.74a13.63,13.63,0,0,0,3.63-.55,20.13,20.13,0,0,0,3.84-1.5L43,363.84a20.28,20.28,0,0,1-3.82,1.34,15.4,15.4,0,0,1-3.61.5Q28,365.68,28,358a23,23,0,0,1,.26-3l.63-4.11q.9-6,3.77-9.11a9.27,9.27,0,0,1,7.08-3.11A8,8,0,0,1,45.2,340.46Zm-9.48,4.11a12.45,12.45,0,0,0-2.32,6.14L33,353.08a30.89,30.89,0,0,0,5.69-1.42,12.09,12.09,0,0,0,3.08-2.9,5.3,5.3,0,0,0,1-3.05,3.24,3.24,0,0,0-.87-2.4,3.16,3.16,0,0,0-2.34-.87A5,5,0,0,0,35.72,344.57Z"/><path d="M63.21,339a32.54,32.54,0,0,1,3.42.76L66,343.81a32.53,32.53,0,0,0-4.27-1.37l-1.9-.11q-3.53,0-3.95,2.69l-.05.32a2.26,2.26,0,0,0,0,.58,3,3,0,0,0,.55,1.79A3.7,3.7,0,0,0,57.94,349l4.32,2a7.05,7.05,0,0,1,3.08,2.53,6.55,6.55,0,0,1,1.08,3.69,6.75,6.75,0,0,1,0,.9l-.11.84a7.34,7.34,0,0,1-2.55,4.9,8.9,8.9,0,0,1-5.93,1.84,16.46,16.46,0,0,1-4-.55,17,17,0,0,1-3.87-1.45l.68-4.06a27.17,27.17,0,0,0,2.5,1.19,25,25,0,0,0,2.55.92,16.41,16.41,0,0,0,2,.16c2.49,0,3.92-1.12,4.27-3.37l0-.32a2.82,2.82,0,0,0,.05-.58,3.05,3.05,0,0,0-.55-1.76,3.94,3.94,0,0,0-1.5-1.29l-4.21-1.95A7.78,7.78,0,0,1,52.53,350a6.2,6.2,0,0,1-1.08-3.58,6,6,0,0,1,.11-1.37l.16-.84q1-5.53,8.48-5.53A17.61,17.61,0,0,1,63.21,339Z"/><path d="M88.45,340.46a6.06,6.06,0,0,1,2,4.77,8.9,8.9,0,0,1-3.58,7.14q-3.59,2.92-11.06,3.56l0,.58a8.22,8.22,0,0,0-.16,1.58q0,3.74,4,3.74a13.63,13.63,0,0,0,3.63-.55,20.13,20.13,0,0,0,3.84-1.5l-.79,4.06a20.28,20.28,0,0,1-3.82,1.34,15.4,15.4,0,0,1-3.61.5q-7.59,0-7.58-7.64a23,23,0,0,1,.26-3l.63-4.11q.9-6,3.77-9.11A9.27,9.27,0,0,1,83,338.71,8,8,0,0,1,88.45,340.46ZM79,344.57a12.45,12.45,0,0,0-2.32,6.14l-.37,2.37A30.89,30.89,0,0,0,82,351.66a12.09,12.09,0,0,0,3.08-2.9,5.3,5.3,0,0,0,1-3.05,3.24,3.24,0,0,0-.87-2.4,3.16,3.16,0,0,0-2.34-.87A5,5,0,0,0,79,344.57Z"/><path d="M107.3,339.57a10.26,10.26,0,0,1,3,2.4l.32-2.63h4.21l-3.58,25.71h-4.27l.47-3.42,2.16-6.58-.1-.11-.16.05q-3.58,10.69-9.69,10.69a5.43,5.43,0,0,1-4.24-1.79,7.32,7.32,0,0,1-1.61-5.06,12.91,12.91,0,0,1,.21-2.42l1.37-8.59a12.19,12.19,0,0,1,3-6.79,7.48,7.48,0,0,1,5.5-2.32A7.07,7.07,0,0,1,107.3,339.57Zm-7.48,8.51-1.26,7.74a17.22,17.22,0,0,0-.26,2.53A3.88,3.88,0,0,0,99,360.9a2.39,2.39,0,0,0,1.92.76q2.85,0,5-3.5a24.91,24.91,0,0,0,3-7.88l.68-4.9a8.26,8.26,0,0,0-2.4-2.08,5.34,5.34,0,0,0-2.66-.76Q100.71,342.54,99.82,348.08Z"/><path d="M134.59,338.81l-.84,5.64a5.42,5.42,0,0,0-1.37-.16c-2.07,0-3.92,1.72-5.53,5.16a45,45,0,0,0-3.48,13.22l-.32,2.37h-4.48l3.58-25.71h4.21l-.58,4.16-2.37,8.9.16.11.16-.11a31,31,0,0,1,4.45-10.19q2.61-3.49,5.56-3.5Z"/><path d="M138.22,363.72a7.54,7.54,0,0,1-2-5.64,14.67,14.67,0,0,1,.16-2.16l1.11-7.8q.69-4.85,3.13-7.14a9.2,9.2,0,0,1,6.56-2.29,21.66,21.66,0,0,1,6,.95l-.63,4a15.94,15.94,0,0,0-5.43-1.16,4.6,4.6,0,0,0-3.42,1.32,6.79,6.79,0,0,0-1.69,3.95l-1.11,8.11a10.63,10.63,0,0,0-.11,1.69,4.49,4.49,0,0,0,1,3.19,3.71,3.71,0,0,0,2.79,1,11.74,11.74,0,0,0,3.11-.45,13.62,13.62,0,0,0,3.11-1.29l-.47,4.06a14.88,14.88,0,0,1-6.37,1.63A7.78,7.78,0,0,1,138.22,363.72Z"/><path d="M164.67,338l-.21,1.53-3.21,12.91.16.11.16-.11a29.37,29.37,0,0,1,4.58-10.19c1.83-2.33,3.79-3.5,5.9-3.5a5.08,5.08,0,0,1,4,1.53c.91,1,1.37,2.63,1.37,4.85a20.88,20.88,0,0,1-.26,3.32L174.62,365h-4.48l2.63-16.75a14.76,14.76,0,0,0,.21-2.42,3.75,3.75,0,0,0-.55-2.32,1.93,1.93,0,0,0-1.61-.68c-1.23,0-2.48.84-3.77,2.53a26.05,26.05,0,0,0-3.48,6.85,45.66,45.66,0,0,0-2.24,9.38l-.47,3.42h-4.48l3.37-24.12a107.14,107.14,0,0,0,1.05-11.85h4.48A73.42,73.42,0,0,1,164.67,338Z"/><path d="M195.24,363.22a9,9,0,0,1-2.66-7,14.67,14.67,0,0,1,.16-2.16l1.63-13.54c.42-3.62,1.58-6.29,3.48-8s4.71-2.61,8.43-2.61a29.89,29.89,0,0,1,4.82.45,34.59,34.59,0,0,1,4.71,1.08l-.53,4.11a30.7,30.7,0,0,0-4.66-1.29,23.74,23.74,0,0,0-4.56-.5,7.45,7.45,0,0,0-5.06,1.53,7.58,7.58,0,0,0-2.16,5l-1.79,14.64c-.07.63-.11,1.09-.11,1.37a5.15,5.15,0,0,0,1.58,4.11,6.81,6.81,0,0,0,4.58,1.37,16.7,16.7,0,0,0,6.22-1.16l1.37-11.22h-6.64l.58-4.21h11.06l-2.16,17.54a31.07,31.07,0,0,1-5.29,2.13,18.34,18.34,0,0,1-5.29.87C199.59,365.67,197,364.85,195.24,363.22Z"/><path d="M236.46,338.81l-.84,5.64a5.42,5.42,0,0,0-1.37-.16c-2.07,0-3.92,1.72-5.53,5.16a45,45,0,0,0-3.48,13.22l-.32,2.37h-4.48L224,339.33h4.21l-.58,4.16-2.37,8.9.16.11.16-.11a31,31,0,0,1,4.45-10.19q2.61-3.49,5.56-3.5Z"/><path d="M253.68,363.11a9.39,9.39,0,0,1-6.9,2.55q-4.22,0-6.45-2.05a7.41,7.41,0,0,1-2.24-5.74,11.69,11.69,0,0,1,.16-1.9l1.05-7.58a11.71,11.71,0,0,1,3.27-7.19,9.61,9.61,0,0,1,6.9-2.5c2.77,0,4.9.69,6.37,2.08a7.48,7.48,0,0,1,2.21,5.71,12.57,12.57,0,0,1-.16,1.95l-1,7.32A12.23,12.23,0,0,1,253.68,363.11Zm-.1-16.25a4.46,4.46,0,0,0-1.16-3.27,4.28,4.28,0,0,0-3.16-1.16q-4.63,0-5.37,5.37l-1.21,8.53c-.07.56-.11.95-.11,1.16a4.38,4.38,0,0,0,1.19,3.24,4.31,4.31,0,0,0,3.19,1.19q4.63,0,5.32-5.37l1.21-8.48C253.54,347.51,253.58,347.11,253.58,346.86Z"/><path d="M280.65,365h-4.21l.21-1.47,2.42-8.53-.11-.11-.16.05q-3.58,10.69-9.69,10.69a5.38,5.38,0,0,1-4.24-1.76,7.54,7.54,0,0,1-1.55-5.14c0-.42.07-1.23.21-2.42l2.48-17h4.48l-2.42,16.49a15.1,15.1,0,0,0-.21,2.48,4.16,4.16,0,0,0,.63,2.61,2.31,2.31,0,0,0,1.9.76q3.38,0,5.43-4.42a32.85,32.85,0,0,0,2.74-9.38l1.21-8.53h4.53Z"/><path d="M307.44,340.54a8,8,0,0,1,1.61,5.37,22.14,22.14,0,0,1-.37,3.48l-1.47,7.85q-1.57,8.43-8.27,8.43a8.51,8.51,0,0,1-3.27-.71,9.52,9.52,0,0,1-2.95-1.92,119.39,119.39,0,0,1-2.48,11.75h-4.42a141.54,141.54,0,0,0,2.84-14.85l2.95-20.6h4.21l-.42,3.06L293,351.67l.11.11.16-.11a31.49,31.49,0,0,1,4.29-9.72q2.4-3.24,5.56-3.24A5.47,5.47,0,0,1,307.44,340.54Zm-8.93,4.35a21,21,0,0,0-3.16,5.71,32.58,32.58,0,0,0-1.9,7.37l-.26,1.84a8.6,8.6,0,0,0,2.29,1.37,6.3,6.3,0,0,0,2.34.53,4.44,4.44,0,0,0,3.24-1.21,7.39,7.39,0,0,0,1.76-3.9l1.37-7a17.26,17.26,0,0,0,.32-3,5.29,5.29,0,0,0-.68-3,2.09,2.09,0,0,0-1.79-1C300.88,342.7,299.7,343.43,298.51,344.89Z"/><polygon class="cls-1" points="829.74 256.35 884.45 267.47 921.43 225.64 903.71 172.7 848.99 161.58 812.01 203.41 829.74 256.35"/><path class="cls-2" d="M885.37,270.2l-57.54-11.69-18.64-55.68,38.9-44,57.54,11.69,18.65,55.68Zm-53.72-16,51.88,10.54,35.07-39.66-16.81-50.2-51.88-10.54L814.84,204Z"/><polygon class="cls-1" points="848.99 161.58 903.71 172.7 940.69 130.88 922.96 77.93 868.25 66.82 831.26 108.64 848.99 161.58"/><path class="cls-2" d="M904.62,175.44l-57.54-11.69-18.64-55.68,38.9-44,57.54,11.69,18.64,55.68Zm-53.72-16L902.78,170l35.07-39.66L921,80.1,869.16,69.56l-35.07,39.66Z"/><polygon class="cls-3" points="572.3 401.39 627.01 412.51 664 370.69 646.27 317.75 591.56 306.63 554.57 348.45 572.3 401.39"/><path class="cls-2" d="M627.93,415.25l-57.54-11.69-18.64-55.68,38.9-44,57.54,11.69,18.65,55.68Zm-53.72-16,51.88,10.54,35.07-39.66-16.81-50.2-51.88-10.54L557.4,349Z"/></g></g></svg>